<svg width="13" height="16" viewBox="0 0 13 16" fill="none" xmlns="http://www.w3.org/2000/svg">
<path d="M12.5 4.8623C12.5 5.28418 12.1484 5.68262 11.5859 5.9873C10.9062 6.38574 9.89844 6.64355 8.72656 6.71387C8.63281 6.69043 8.53906 6.64355 8.46875 6.59668C7.53125 6.22168 6.3125 5.9873 5 5.9873C4.78906 5.9873 4.60156 6.01074 4.41406 6.01074L4.39062 5.9873C3.82812 5.68262 3.5 5.28418 3.5 4.8623C3.5 3.83105 5.51562 2.9873 8 2.9873C10.4844 2.9873 12.5 3.83105 12.5 4.8623ZM4.25 6.78418C4.48438 6.76074 4.74219 6.7373 5 6.7373C6.45312 6.7373 7.74219 7.04199 8.5625 7.4873C9.14844 7.79199 9.5 8.19043 9.5 8.6123C9.5 8.70605 9.47656 8.7998 9.42969 8.89355C9.33594 9.19824 9.03125 9.47949 8.60938 9.7373H8.58594C7.76562 10.2061 6.45312 10.4873 5 10.4873C3.59375 10.4873 2.35156 10.2295 1.50781 9.80762C1.46094 9.78418 1.4375 9.76074 1.39062 9.7373C0.828125 9.43262 0.5 9.03418 0.5 8.6123C0.5 7.81543 1.74219 7.1123 3.5 6.85449C3.73438 6.83105 3.99219 6.78418 4.25 6.78418ZM10.25 8.6123C10.25 8.12012 9.99219 7.69824 9.66406 7.37012C10.3438 7.27637 10.9531 7.1123 11.4688 6.90137C11.8438 6.7373 12.1953 6.52637 12.5 6.29199V7.1123C12.5 7.58105 12.1016 8.00293 11.4688 8.30762C11.1172 8.49512 10.6953 8.63574 10.2266 8.75293C10.2266 8.70605 10.25 8.65918 10.25 8.63574V8.6123ZM9.5 10.8623C9.5 11.2842 9.14844 11.6826 8.58594 11.9873C8.53906 12.0107 8.51562 12.0342 8.46875 12.0576C7.625 12.4795 6.38281 12.7373 5 12.7373C3.52344 12.7373 2.21094 12.4561 1.39062 11.9873C0.828125 11.6826 0.5 11.2842 0.5 10.8623V10.042C0.78125 10.2764 1.13281 10.4873 1.50781 10.6514C2.44531 11.0264 3.66406 11.2373 5 11.2373C6.3125 11.2373 7.53125 11.0264 8.46875 10.6514C8.63281 10.5576 8.82031 10.4873 8.98438 10.3936C9.125 10.2998 9.26562 10.2061 9.38281 10.1123C9.42969 10.0889 9.45312 10.0654 9.5 10.042V10.1123V10.2529V10.8623ZM10.25 10.8623V10.1123V9.52637C10.6953 9.40918 11.0938 9.29199 11.4688 9.15137C11.8438 8.9873 12.1953 8.77637 12.5 8.54199V9.3623C12.5 9.62012 12.3828 9.85449 12.1484 10.0889C11.75 10.4873 11.0938 10.792 10.2266 11.0029C10.2266 10.9561 10.25 10.9092 10.25 10.8623ZM5 13.4873C6.3125 13.4873 7.53125 13.2764 8.46875 12.9014C8.84375 12.7373 9.19531 12.5264 9.5 12.292V13.1123C9.5 14.167 7.48438 14.9873 5 14.9873C2.51562 14.9873 0.5 14.167 0.5 13.1123V12.292C0.78125 12.5264 1.13281 12.7373 1.50781 12.9014C2.44531 13.2764 3.66406 13.4873 5 13.4873Z" fill="#463E5E"/>
</svg>
