<svg width="16" height="16" viewBox="0 0 12 16" fill="none" xmlns="http://www.w3.org/2000/svg">
    <path
        d="M0.75 4.75C0.75 4.35156 1.07812 4 1.5 4H10.5C10.8984 4 11.25 4.35156 11.25 4.75C11.25 5.17188 10.8984 5.5 10.5 5.5H1.5C1.07812 5.5 0.75 5.17188 0.75 4.75ZM0.75 8.5C0.75 8.10156 1.07812 7.75 1.5 7.75H10.5C10.8984 7.75 11.25 8.10156 11.25 8.5C11.25 8.92188 10.8984 9.25 10.5 9.25H1.5C1.07812 9.25 0.75 8.92188 0.75 8.5ZM11.25 12.25C11.25 12.6719 10.8984 13 10.5 13H1.5C1.07812 13 0.75 12.6719 0.75 12.25C0.75 11.8516 1.07812 11.5 1.5 11.5H10.5C10.8984 11.5 11.25 11.8516 11.25 12.25Z"
        fill="#B7ACCB" />
</svg>