<svg width="15" height="15" viewBox="0 0 15 15" fill="none" xmlns="http://www.w3.org/2000/svg">
<path d="M9 4.25H6L4.875 2.58594C4.71094 2.35156 4.89844 2 5.17969 2H9.79688C10.0781 2 10.2656 2.35156 10.1016 2.58594L9 4.25ZM6 5H9C9.07031 5.07031 9.1875 5.14062 9.30469 5.21094C10.6172 6.05469 13.5 7.88281 13.5 11.75C13.5 12.9922 12.4922 14 11.25 14H3.75C2.50781 14 1.5 12.9922 1.5 11.75C1.5 7.88281 4.35938 6.05469 5.69531 5.21094C5.78906 5.14062 5.90625 5.07031 6 5ZM7.96875 7.0625C7.96875 6.80469 7.75781 6.59375 7.5 6.59375C7.24219 6.59375 7.03125 6.80469 7.03125 7.0625V7.39062C6.84375 7.4375 6.65625 7.50781 6.49219 7.60156C6.16406 7.78906 5.88281 8.14062 5.90625 8.63281C5.90625 9.10156 6.1875 9.40625 6.46875 9.59375C6.72656 9.73438 7.05469 9.82812 7.3125 9.92188H7.35938C7.64062 10.0156 7.85156 10.0859 8.01562 10.1797C8.13281 10.25 8.13281 10.2969 8.13281 10.3672C8.15625 10.4844 8.10938 10.5547 8.01562 10.6016C7.89844 10.6953 7.71094 10.7188 7.5 10.7188C7.24219 10.7188 7.00781 10.625 6.67969 10.5312C6.63281 10.5078 6.5625 10.4844 6.51562 10.4609C6.25781 10.3906 6 10.5078 5.92969 10.7656C5.83594 11 5.97656 11.2812 6.21094 11.3516C6.25781 11.375 6.30469 11.375 6.35156 11.3984C6.5625 11.4688 6.77344 11.5391 7.00781 11.6094V11.9375C7.00781 12.1953 7.21875 12.4062 7.47656 12.4062C7.73438 12.4062 7.94531 12.1953 7.94531 11.9375V11.6328C8.13281 11.5859 8.32031 11.5156 8.50781 11.4219C8.83594 11.2109 9.09375 10.8594 9.07031 10.3672C9.07031 9.875 8.8125 9.57031 8.50781 9.38281C8.22656 9.21875 7.89844 9.10156 7.64062 9.03125H7.61719C7.3125 8.9375 7.10156 8.86719 6.96094 8.77344C6.84375 8.70312 6.82031 8.65625 6.82031 8.63281C6.82031 8.53906 6.86719 8.46875 6.98438 8.39844C7.10156 8.32812 7.28906 8.28125 7.47656 8.28125C7.71094 8.28125 7.94531 8.35156 8.20312 8.42188C8.46094 8.46875 8.71875 8.32812 8.78906 8.07031C8.85938 7.83594 8.69531 7.57812 8.46094 7.50781C8.29688 7.46094 8.13281 7.41406 7.96875 7.39062V7.0625Z" fill="#D5D2DF"/>
</svg>
