<svg width="16" height="16" viewBox="0 0 16 16" fill="none" xmlns="http://www.w3.org/2000/svg">
<path d="M9.1875 11.7061C8.8125 12.1123 8.15625 12.1123 7.78125 11.7061L5.46875 9.4248L3.6875 11.2061C3.3125 11.6123 2.65625 11.6123 2.28125 11.2061C1.875 10.8311 1.875 10.1748 2.28125 9.7998L4.78125 7.2998C5.15625 6.89355 5.8125 6.89355 6.1875 7.2998L8.5 9.58105L10.2812 7.7998L9.25 6.76855C8.78125 6.2998 9.125 5.4873 9.78125 5.4873H13.25C13.6562 5.4873 14 5.83105 14 6.2373V9.70605C14 10.3623 13.1875 10.7061 12.7188 10.2061L11.6875 9.20605L9.1875 11.7061Z" fill="#8B859F"/>
</svg>
