<svg width="18" height="16" viewBox="0 0 18 16" fill="none" xmlns="http://www.w3.org/2000/svg">
    <path
        d="M9.90625 0.59375C10.25 0.75 10.5 1.125 10.5 1.5V13.5C10.5 13.9062 10.25 14.25 9.90625 14.4375C9.53125 14.5938 9.125 14.5312 8.8125 14.25L4.59375 10.5H2.5C1.375 10.5 0.5 9.625 0.5 8.5V6.5C0.5 5.40625 1.375 4.5 2.5 4.5H4.59375L8.8125 0.78125C9.125 0.5 9.53125 0.4375 9.90625 0.59375ZM13.7812 4.71875L15.5 6.4375L17.2188 4.71875C17.5 4.4375 17.9688 4.4375 18.25 4.71875C18.5625 5.03125 18.5625 5.5 18.25 5.78125L16.5312 7.5L18.25 9.21875C18.5625 9.53125 18.5625 10 18.25 10.2812C17.9688 10.5938 17.5 10.5938 17.2188 10.2812L15.5 8.5625L13.7812 10.2812C13.4688 10.5938 13 10.5938 12.7188 10.2812C12.4062 10 12.4062 9.53125 12.7188 9.21875L14.4375 7.5L12.7188 5.78125C12.4062 5.5 12.4062 5.03125 12.7188 4.71875C13 4.4375 13.4688 4.4375 13.7812 4.71875Z"
        fill="#DCDAE0" />
</svg>