<svg width="15" height="16" viewBox="0 0 15 16" fill="none" xmlns="http://www.w3.org/2000/svg">
<path d="M8 12.9873V13.0146C6.96094 13.0146 6.00391 12.8232 5.12891 12.5225C4.82812 12.7412 4.28125 13.0693 3.65234 13.3428C2.99609 13.6436 2.20312 13.8896 1.4375 13.8896C1.24609 13.8896 1.08203 13.7803 1.02734 13.6162C0.945312 13.4521 1 13.2607 1.10938 13.124C1.13672 13.124 1.13672 13.0967 1.16406 13.0967C1.19141 13.042 1.24609 12.9873 1.30078 12.9326C1.41016 12.7959 1.54688 12.5771 1.71094 12.3311C1.98438 11.8936 2.23047 11.292 2.28516 10.6084C1.46484 9.67871 1 8.55762 1 7.2998C1 4.18262 4.11719 1.6123 8 1.6123C11.8555 1.6123 15 4.18262 15 7.2998C15 10.4443 11.8555 12.9873 8 12.9873ZM4.5 8.1748C4.96484 8.1748 5.375 7.79199 5.375 7.2998C5.375 6.83496 4.96484 6.4248 4.5 6.4248C4.00781 6.4248 3.625 6.83496 3.625 7.2998C3.625 7.79199 4.00781 8.1748 4.5 8.1748ZM8 8.1748C8.46484 8.1748 8.875 7.79199 8.875 7.2998C8.875 6.83496 8.46484 6.4248 8 6.4248C7.50781 6.4248 7.125 6.83496 7.125 7.2998C7.125 7.79199 7.50781 8.1748 8 8.1748ZM12.375 7.2998C12.375 6.83496 11.9648 6.4248 11.5 6.4248C11.0078 6.4248 10.625 6.83496 10.625 7.2998C10.625 7.79199 11.0078 8.1748 11.5 8.1748C11.9648 8.1748 12.375 7.79199 12.375 7.2998Z" fill="#D1CDE2"/>
</svg>
