<svg width="13" height="16" viewBox="0 0 13 16" fill="none" xmlns="http://www.w3.org/2000/svg">
<path d="M6.5 14.9873C3.17188 14.9873 0.5 12.3154 0.5 8.9873C0.5 5.68262 3.17188 2.9873 6.5 2.9873C9.80469 2.9873 12.5 5.68262 12.5 8.9873C12.5 12.3154 9.80469 14.9873 6.5 14.9873ZM5.9375 5.7998V8.9873C5.9375 9.1748 6.03125 9.3623 6.17188 9.45605L8.42188 10.9561C8.67969 11.1436 9.03125 11.0732 9.21875 10.8154C9.38281 10.5576 9.3125 10.2061 9.05469 10.0186L7.0625 8.70605V5.7998C7.0625 5.49512 6.80469 5.2373 6.5 5.2373C6.17188 5.2373 5.9375 5.49512 5.9375 5.7998Z" fill="#463E5E"/>
</svg>
