<svg width="17" height="17" viewBox="0 0 17 17" fill="none" xmlns="http://www.w3.org/2000/svg">
<path d="M2.84375 2.84375L1.78125 1.78125C1.28125 1.3125 0.5 1.65625 0.5 2.3125V5.75C0.5 6.1875 0.8125 6.5 1.25 6.5H4.6875C5.34375 6.5 5.6875 5.71875 5.21875 5.21875L4.25 4.28125C5.34375 3.1875 6.84375 2.5 8.5 2.5C11.8125 2.5 14.5 5.1875 14.5 8.5C14.5 11.8125 11.8125 14.5 8.5 14.5C7.21875 14.5 6.03125 14.125 5.0625 13.4375C4.59375 13.125 3.96875 13.2188 3.65625 13.6875C3.34375 14.125 3.46875 14.75 3.90625 15.0938C5.21875 15.9688 6.78125 16.5 8.5 16.5C12.9062 16.5 16.5 12.9375 16.5 8.5C16.5 4.09375 12.9062 0.5 8.5 0.5C6.28125 0.5 4.28125 1.40625 2.84375 2.84375ZM8.5 4.5C8.0625 4.5 7.75 4.84375 7.75 5.25V8.5C7.75 8.71875 7.8125 8.90625 7.96875 9.03125L10.2188 11.2812C10.5 11.5938 10.9688 11.5938 11.25 11.2812C11.5625 11 11.5625 10.5312 11.25 10.25L9.21875 8.21875V5.25C9.21875 4.84375 8.90625 4.5 8.46875 4.5H8.5Z" fill="#DCDAE0"/>
</svg>
