<svg width="21" height="17" viewBox="0 0 21 17" fill="none" xmlns="http://www.w3.org/2000/svg">
<path d="M4.77679 5.07562C3.37054 5.07562 2.27679 3.98187 2.27679 2.57562C2.27679 1.20062 3.37054 0.0756226 4.77679 0.0756226C6.15179 0.0756226 7.27679 1.20062 7.27679 2.57562C7.27679 3.98187 6.15179 5.07562 4.77679 5.07562ZM16.2768 5.07562C14.8705 5.07562 13.7768 3.98187 13.7768 2.57562C13.7768 1.20062 14.8705 0.0756226 16.2768 0.0756226C17.6518 0.0756226 18.7768 1.20062 18.7768 2.57562C18.7768 3.98187 17.6518 5.07562 16.2768 5.07562ZM0.276794 9.41937C0.276794 7.57562 1.74554 6.07562 3.58929 6.07562H4.93304C5.43304 6.07562 5.90179 6.20062 6.33929 6.38812C6.27679 6.60687 6.27679 6.85687 6.27679 7.07562C6.27679 8.29437 6.77679 9.35687 7.62054 10.0756C7.62054 10.0756 7.62054 10.0756 7.58929 10.0756H0.933044C0.558044 10.0756 0.276794 9.79437 0.276794 9.41937ZM12.933 10.0756H12.9018C13.7455 9.35687 14.2455 8.29437 14.2455 7.07562C14.2455 6.85687 14.2455 6.60687 14.2143 6.38812C14.6205 6.20062 15.0893 6.07562 15.5893 6.07562H16.933C18.7768 6.07562 20.2768 7.57562 20.2768 9.41937C20.2768 9.79437 19.9643 10.0756 19.5893 10.0756H12.933ZM13.2768 7.07562C13.2768 8.73187 11.933 10.0756 10.2768 10.0756C8.62054 10.0756 7.27679 8.73187 7.27679 7.07562C7.27679 5.41937 8.62054 4.07562 10.2768 4.07562C11.933 4.07562 13.2768 5.41937 13.2768 7.07562ZM4.27679 15.2631C4.27679 12.9506 6.12054 11.0756 8.43304 11.0756H12.0893C14.4018 11.0756 16.2768 12.9506 16.2768 15.2631C16.2768 15.7006 15.9018 16.0756 15.433 16.0756H5.08929C4.65179 16.0756 4.27679 15.7319 4.27679 15.2631Z" fill="#DCDAE0"/>
</svg>
