<svg width="16" height="16" viewBox="0 0 16 16" fill="none" xmlns="http://www.w3.org/2000/svg">
<path d="M4.19922 4.2373H6.66016C8.82031 0.655273 12.1836 0.518555 14.207 0.901367C14.5352 0.956055 14.7812 1.20215 14.8359 1.53027C15.2188 3.55371 15.082 6.91699 11.5 9.07715V11.5381C11.5 12.2217 11.1172 12.8779 10.5156 13.2334L8.10938 14.6553C7.89062 14.792 7.64453 14.792 7.45312 14.6553C7.23438 14.5459 7.125 14.3271 7.125 14.0811V10.9639C7.125 10.335 6.87891 9.7334 6.44141 9.2959C6.00391 8.8584 5.40234 8.6123 4.77344 8.6123H1.65625C1.41016 8.6123 1.19141 8.50293 1.08203 8.28418C0.945312 8.09277 0.945312 7.84668 1.08203 7.62793L2.50391 5.22168C2.85938 4.62012 3.51562 4.2373 4.19922 4.2373ZM12.5938 4.2373C12.5938 3.63574 12.1016 3.14355 11.5 3.14355C10.8711 3.14355 10.4062 3.63574 10.4062 4.2373C10.4062 4.86621 10.8711 5.33105 11.5 5.33105C12.1016 5.33105 12.5938 4.86621 12.5938 4.2373ZM5.53906 13.5889C4.19922 14.9561 1 14.7373 1 14.7373C1 14.7373 0.78125 11.5381 2.14844 10.1982C3.07812 9.26855 4.60938 9.26855 5.53906 10.1982C6.46875 11.1279 6.46875 12.6592 5.53906 13.5889ZM4.25391 12.6045C4.58203 12.3037 4.58203 11.7842 4.25391 11.4834C3.95312 11.1553 3.43359 11.1553 3.13281 11.4834C2.66797 11.9209 2.75 12.9873 2.75 12.9873C2.75 12.9873 3.81641 13.0693 4.25391 12.6045Z" fill="#D1CDE2"/>
</svg>
