<svg width="18" height="16" viewBox="0 0 18 16" fill="none" xmlns="http://www.w3.org/2000/svg">
<path d="M15.0075 0.190483C16.8328 2.03566 18 4.84885 18 8.00102C18 11.1532 16.8328 13.9699 15.0075 15.8116C14.7178 16.1051 14.2931 16.0492 14.0569 15.6892C13.8206 15.3293 13.8656 14.8016 14.1553 14.508C15.6797 12.9704 16.65 10.629 16.65 8.00102C16.65 5.37304 15.6797 3.03163 14.1553 1.49049C13.8656 1.19694 13.8234 0.669249 14.0569 0.309301C14.2903 -0.0506477 14.7178 -0.103067 15.0075 0.186988V0.190483ZM13.3059 2.79399C14.5209 4.02411 15.3 5.90073 15.3 8.00102C15.3 10.1013 14.5209 11.9779 13.3059 13.208C13.0162 13.5016 12.5916 13.4457 12.3553 13.0857C12.1191 12.7258 12.1641 12.1981 12.4537 11.9045C13.3678 10.982 13.95 9.5771 13.95 8.00102C13.95 6.42493 13.3678 5.02008 12.4537 4.094C12.1641 3.80045 12.1219 3.27276 12.3553 2.91281C12.5887 2.55286 13.0162 2.50044 13.3059 2.7905V2.79399ZM11.6044 5.39751C12.2091 6.01256 12.6 6.94913 12.6 8.00102C12.6 9.0529 12.2091 9.98947 11.6044 10.6045C11.3147 10.8981 10.89 10.8422 10.6537 10.4822C10.4175 10.1223 10.4625 9.59458 10.7522 9.30103C11.0559 8.9935 11.25 8.52521 11.25 8.00102C11.25 7.47682 11.0559 7.00854 10.7522 6.69751C10.4625 6.40396 10.4203 5.87627 10.6537 5.51632C10.8872 5.15637 11.3147 5.10395 11.6044 5.39401V5.39751ZM8.46844 0.27086C8.79187 0.452581 9 0.850971 9 1.2913V14.7107C9 15.1511 8.79187 15.5495 8.46844 15.7312C8.145 15.9129 7.76531 15.8395 7.50094 15.546L3.70687 11.3559H1.8C0.807188 11.3559 0 10.3529 0 9.1193V6.88273C0 5.64912 0.807188 4.64616 1.8 4.64616H3.70687L7.50094 0.456076C7.76531 0.162526 8.145 0.0926327 8.46844 0.27086Z" fill="#DCDAE0"/>
</svg>
